<svg xmlns="http://www.w3.org/2000/svg" viewBox="0 0 100 100">
  <defs>
    <linearGradient id="carGradient" x1="0%" y1="0%" x2="100%" y2="100%">
      <stop offset="0%" style="stop-color:#3B82F6;stop-opacity:1" />
      <stop offset="100%" style="stop-color:#1D4ED8;stop-opacity:1" />
    </linearGradient>
  </defs>

  <!-- Car body -->
  <path d="M 20 50 L 30 35 L 45 35 L 50 25 L 65 25 L 70 35 L 80 35 L 85 50 L 85 65 L 80 70 L 20 70 L 15 65 L 15 50 Z"
        fill="url(#carGradient)" stroke="#1E40AF" stroke-width="2"/>

  <!-- Windows -->
  <path d="M 35 35 L 40 30 L 48 30 L 48 35 Z" fill="#93C5FD" opacity="0.6"/>
  <path d="M 52 30 L 60 30 L 65 35 L 52 35 Z" fill="#93C5FD" opacity="0.6"/>

  <!-- Wheels -->
  <circle cx="30" cy="70" r="8" fill="#1F2937" stroke="#374151" stroke-width="2"/>
  <circle cx="30" cy="70" r="4" fill="#6B7280"/>

  <circle cx="70" cy="70" r="8" fill="#1F2937" stroke="#374151" stroke-width="2"/>
  <circle cx="70" cy="70" r="4" fill="#6B7280"/>

  <!-- Headlight -->
  <circle cx="83" cy="55" r="3" fill="#FCD34D"/>
</svg>
